<?xml version="1.0" encoding="UTF-8" standalone="no"?>
<!-- Generator: Adobe Illustrator 13.0.2, SVG Export Plug-In  -->

<svg
   xmlns:dc="http://purl.org/dc/elements/1.1/"
   xmlns:cc="http://creativecommons.org/ns#"
   xmlns:rdf="http://www.w3.org/1999/02/22-rdf-syntax-ns#"
   xmlns:svg="http://www.w3.org/2000/svg"
   xmlns="http://www.w3.org/2000/svg"
   xmlns:sodipodi="http://sodipodi.sourceforge.net/DTD/sodipodi-0.dtd"
   xmlns:inkscape="http://www.inkscape.org/namespaces/inkscape"
   version="1.1"
   x="0px"
   y="0px"
   width="330px"
   height="330px"
   viewBox="0 0 330 330"
   enable-background="new 0 0 330 330"
   xml:space="preserve"
   id="svg2"
   inkscape:version="0.48.4 r9939"
   sodipodi:docname="background.svg"><metadata
     id="metadata174"><rdf:RDF><cc:Work
         rdf:about=""><dc:format>image/svg+xml</dc:format><dc:type
           rdf:resource="http://purl.org/dc/dcmitype/StillImage" /></cc:Work></rdf:RDF></metadata><sodipodi:namedview
     pagecolor="#ffffff"
     bordercolor="#666666"
     borderopacity="1"
     objecttolerance="10"
     gridtolerance="10"
     guidetolerance="10"
     inkscape:pageopacity="0"
     inkscape:pageshadow="2"
     inkscape:window-width="1366"
     inkscape:window-height="702"
     id="namedview172"
     showgrid="false"
     inkscape:zoom="1.430303"
     inkscape:cx="192.9661"
     inkscape:cy="192.9661"
     inkscape:window-x="0"
     inkscape:window-y="27"
     inkscape:window-maximized="1"
     inkscape:current-layer="svg2" /><defs
     id="defs4" /><linearGradient
     id="SVGID_1_"
     gradientUnits="userSpaceOnUse"
     x1="-22.897"
     y1="128.3965"
     x2="85.7304"
     y2="19.7691"
     gradientTransform="matrix(1 0 0 -1 102.5 208)"><stop
       offset="0"
       style="stop-color:#F2F2F2"
       id="stop7" /><stop
       offset="1"
       style="stop-color:#808080"
       id="stop9" /></linearGradient><path
     d="M150,300.002c-82.709,0-150-67.291-150-150C0,67.291,67.291,0,150,0s150,67.291,150,150.002  C300,232.711,232.709,300.002,150,300.002L150,300.002z"
     id="path11"
     fill="url(#SVGID_1_)" /><linearGradient
     id="SVGID_2_"
     gradientUnits="userSpaceOnUse"
     x1="-20.5806"
     y1="126.0815"
     x2="84.4745"
     y2="21.0264"
     gradientTransform="matrix(1 0 0 -1 102.5 208)"><stop
       offset="0"
       style="stop-color:#E6E6E6"
       id="stop14" /><stop
       offset="1"
       style="stop-color:#BFBFBF"
       id="stop16" /></linearGradient><path
     fill="url(#SVGID_2_)"
     d="M150,5.001c-80.08,0-145,64.92-145,145s64.92,145,145,145s145-64.92,145-145S230.081,5.001,150,5.001  z"
     id="path18" /><linearGradient
     id="SVGID_3_"
     gradientUnits="userSpaceOnUse"
     x1="-35.7417"
     y1="140.9712"
     x2="143.9234"
     y2="-38.6939"
     gradientTransform="matrix(0.9756 0 0 -0.9756 97.2318 199.8918)"><stop
       offset="0"
       style="stop-color:#808080"
       id="stop21" /><stop
       offset="0.509"
       style="stop-color:#B8B8B8"
       id="stop23" /><stop
       offset="1"
       style="stop-color:#F2F2F2"
       id="stop25" /></linearGradient><path
     fill="url(#SVGID_3_)"
     d="M150.011,274.002c-68.38,0-124.012-55.628-124.012-124.002S81.631,26,150.011,26  C218.378,26.001,274,81.626,274,150S218.378,274.002,150.011,274.002L150.011,274.002z"
     id="path27" /><path
     fill="#333333"
     d="M150.01,271.002c-66.724,0-121.009-54.281-121.009-121.001c0-66.719,54.285-121,121.009-121  c66.715,0,120.991,54.281,120.991,121C271.001,216.721,216.725,271.002,150.01,271.002L150.01,271.002z"
     id="path29" /><radialGradient
     id="SVGID_4_"
     cx="53.0718"
     cy="41.4814"
     r="128.083"
     gradientTransform="matrix(0.9756 0 0 -0.9756 97.2318 199.8918)"
     gradientUnits="userSpaceOnUse"><stop
       offset="0"
       style="stop-color:#8A8A8A"
       id="stop32" /><stop
       offset="0.188"
       style="stop-color:#9F9F9F"
       id="stop34" /><stop
       offset="0.4267"
       style="stop-color:#B2B2B2"
       id="stop36" /><stop
       offset="0.6689"
       style="stop-color:#BEBEBE"
       id="stop38" /><stop
       offset="0.9176"
       style="stop-color:#C2C2C2"
       id="stop40" /><stop
       offset="1"
       style="stop-color:#000000"
       id="stop42" /></radialGradient><path
     d="M150.01,30.001c-66.282,0-120.01,53.727-120.01,120c0,66.272,53.728,120,120.01,120  c66.268,0,119.99-53.728,119.99-120C270,83.728,216.277,30.001,150.01,30.001z"
     id="path44"
     fill="url(#SVGID_4_)" /><circle
     fill="#333333"
     cx="54.344"
     cy="150.976"
     r="2"
     id="circle86" /><circle
     fill="#333333"
     cx="245.344"
     cy="150.976"
     r="2"
     id="circle88" /><circle
     fill="#333333"
     cx="232.549"
     cy="103.226"
     r="2"
     id="circle90" /><circle
     fill="#333333"
     cx="197.594"
     cy="68.271"
     r="2"
     id="circle92" /><circle
     fill="#333333"
     cx="149.844"
     cy="55.476"
     r="2"
     id="circle94" /><circle
     fill="#333333"
     cx="102.095"
     cy="68.271"
     r="2.001"
     id="circle98" /><circle
     fill="#333333"
     cx="67.139"
     cy="103.226"
     r="2"
     id="circle102" /><circle
     fill="#666666"
     cx="244.82"
     cy="140.993"
     r="1"
     id="circle104" /><circle
     fill="#666666"
     cx="243.257"
     cy="131.12"
     r="0.999"
     id="circle106" /><circle
     fill="#666666"
     cx="240.67"
     cy="121.464"
     r="1"
     id="circle108" /><circle
     fill="#666666"
     cx="237.088"
     cy="112.132"
     r="1"
     id="circle110" /><circle
     fill="#666666"
     cx="227.105"
     cy="94.842"
     r="1"
     id="circle112" /><circle
     fill="#666666"
     cx="220.814"
     cy="87.075"
     r="1"
     id="circle114" /><circle
     fill="#666666"
     cx="213.746"
     cy="80.005"
     r="0.999"
     id="circle116" /><circle
     fill="#666666"
     cx="205.979"
     cy="73.714"
     r="0.999"
     id="circle118" /><circle
     fill="#666666"
     cx="188.688"
     cy="63.733"
     r="1"
     id="circle120" /><circle
     fill="#666666"
     cx="179.355"
     cy="60.15"
     r="1"
     id="circle122" /><circle
     fill="#666666"
     cx="169.7"
     cy="57.563"
     r="0.999"
     id="circle124" /><circle
     fill="#666666"
     cx="159.827"
     cy="55.999"
     r="1.001"
     id="circle126" /><circle
     fill="#666666"
     cx="139.862"
     cy="56"
     r="1"
     id="circle128" /><circle
     fill="#666666"
     cx="129.99"
     cy="57.563"
     r="0.999"
     id="circle130" /><circle
     fill="#666666"
     cx="120.333"
     cy="60.15"
     r="1"
     id="circle132" /><path
     fill="#666666"
     d="M110.594,62.818c0.505-0.223,1.096,0.004,1.319,0.508c0.226,0.504,0.001,1.096-0.506,1.32  c-0.505,0.225-1.096-0.002-1.319-0.508C109.862,63.636,110.088,63.044,110.594,62.818z"
     id="path134" /><circle
     fill="#666666"
     cx="93.711"
     cy="73.714"
     r="0.999"
     id="circle138" /><circle
     fill="#666666"
     cx="85.943"
     cy="80.006"
     r="1"
     id="circle142" /><circle
     fill="#666666"
     cx="78.875"
     cy="87.075"
     r="1"
     id="circle146" /><path
     fill="#666666"
     d="M71.774,94.255c0.326-0.447,0.951-0.547,1.396-0.221c0.447,0.324,0.548,0.947,0.222,1.395  c-0.323,0.449-0.95,0.547-1.396,0.221C71.549,95.328,71.449,94.703,71.774,94.255z"
     id="path150" /><circle
     fill="#666666"
     cx="62.601"
     cy="112.132"
     r="0.999"
     id="circle154" /><circle
     fill="#666666"
     cx="59.02"
     cy="121.464"
     r="1"
     id="circle158" /><path
     fill="#666666"
     d="M55.454,130.914c0.115-0.543,0.646-0.887,1.186-0.77c0.541,0.113,0.887,0.645,0.771,1.186  c-0.115,0.539-0.646,0.883-1.188,0.77C55.684,131.986,55.338,131.455,55.454,130.914z"
     id="path162" /><circle
     fill="#666666"
     cx="54.868"
     cy="140.994"
     r="1"
     id="circle166" /><path
     fill="#666666"
     d="M81.883,185.646c4.983,0,8.058,3.813,8.058,7.998c0,4.98-3.999,8.24-8.243,8.24  c-4.798,0-8.059-3.627-8.059-7.874c-0.062-4.733,3.63-8.364,8.183-8.364H81.883z M81.698,188.537c-3.138,0-4.736,2.832-4.736,5.415  c0,2.829,2.09,5.044,4.797,5.044c2.768,0,4.859-2.215,4.859-5.229c0-2.338-1.353-5.23-4.859-5.23H81.698z"
     id="path168" /><path
     fill="#666666"
     d="M125.058,226.491c-1.968,0.983-5.905,2.032-10.95,2.032c-11.684,0-20.482-7.443-20.482-21.039  c0-12.979,8.798-21.776,21.653-21.776c5.168,0,8.424,1.106,9.842,1.845l-1.292,4.367c-2.032-0.98-4.924-1.722-8.367-1.722  c-9.719,0-16.178,6.213-16.178,17.103c0,10.149,5.842,16.67,15.931,16.67c3.263,0,6.583-0.676,8.734-1.723L125.058,226.491z"
     id="path170" /><text
     xml:space="preserve"
     style="font-size:40px;font-style:normal;font-weight:normal;line-height:125%;letter-spacing:0px;word-spacing:0px;fill:#000000;fill-opacity:1;stroke:none;font-family:Sans"
     x="-69.915253"
     y="226.52542"
     id="text3151"
     sodipodi:linespacing="125%"><tspan
       sodipodi:role="line"
       id="tspan3153"
       x="-69.915253"
       y="226.52542" /></text>
<text
     xml:space="preserve"
     style="font-size:12px;font-style:normal;font-weight:normal;line-height:125%;letter-spacing:0px;word-spacing:0px;fill:#000000;fill-opacity:1;stroke:none;font-family:Sans"
     x="41.25"
     y="157.30933"
     id="text3188"
     sodipodi:linespacing="125%"><tspan
       sodipodi:role="line"
       id="tspan3190" /></text>
<text
     xml:space="preserve"
     style="font-size:12px;font-style:normal;font-weight:normal;line-height:125%;letter-spacing:0px;word-spacing:0px;fill:#000000;fill-opacity:1;stroke:none;font-family:Sans"
     x="36.35593"
     y="158.00847"
     id="text3192"
     sodipodi:linespacing="125%"><tspan
       sodipodi:role="line"
       id="tspan3194" /></text>
<text
     xml:space="preserve"
     style="font-size:12px;font-style:normal;font-weight:normal;line-height:125%;letter-spacing:0px;word-spacing:0px;fill:#000000;fill-opacity:1;stroke:none;font-family:Sans"
     x="39.851696"
     y="153.81355"
     id="text3196"
     sodipodi:linespacing="125%"><tspan
       sodipodi:role="line"
       id="tspan3198" /></text>
<text
     xml:space="preserve"
     style="font-size:12px;font-style:normal;font-weight:normal;line-height:125%;letter-spacing:0px;word-spacing:0px;fill:#000000;fill-opacity:1;stroke:none;font-family:Sans"
     x="37.055084"
     y="158.00847"
     id="text3200"
     sodipodi:linespacing="125%"><tspan
       sodipodi:role="line"
       id="tspan3202" /></text>
<text
     xml:space="preserve"
     style="font-size:10px;font-style:normal;font-weight:normal;line-height:125%;letter-spacing:0px;word-spacing:0px;fill:#000000;fill-opacity:1;stroke:none;font-family:Sans"
     x="37.754238"
     y="157.30933"
     id="text3204"
     sodipodi:linespacing="125%"><tspan
       sodipodi:role="line"
       id="tspan3206" /></text>
<text
     xml:space="preserve"
     style="font-size:10px;font-style:normal;font-weight:normal;line-height:125%;letter-spacing:0px;word-spacing:0px;fill:#000000;fill-opacity:1;stroke:none;font-family:Sans"
     x="37.055084"
     y="157.30933"
     id="text3208"
     sodipodi:linespacing="125%"><tspan
       sodipodi:role="line"
       id="tspan3210" /></text>
<text
     xml:space="preserve"
     style="font-size:10px;font-style:normal;font-weight:normal;line-height:125%;letter-spacing:0px;word-spacing:0px;fill:#000000;fill-opacity:1;stroke:none;font-family:Sans"
     x="37.055084"
     y="150.31779"
     id="text3212"
     sodipodi:linespacing="125%"><tspan
       sodipodi:role="line"
       id="tspan3214" /></text>
<text
     xml:space="preserve"
     style="font-size:10px;font-style:normal;font-weight:normal;line-height:125%;letter-spacing:0px;word-spacing:0px;fill:#000000;fill-opacity:1;stroke:none;font-family:Sans"
     x="37.055084"
     y="155.91103"
     id="text3216"
     sodipodi:linespacing="125%"><tspan
       sodipodi:role="line"
       id="tspan3218"
       x="37.055084"
       y="155.91103">18</tspan></text>
<text
     xml:space="preserve"
     style="font-size:10px;font-style:normal;font-weight:normal;line-height:125%;letter-spacing:0px;word-spacing:0px;fill:#000000;fill-opacity:1;stroke:none;font-family:Sans"
     x="50.855701"
     y="102.82234"
     id="text3216-8"
     sodipodi:linespacing="125%"><tspan
       sodipodi:role="line"
       id="tspan3218-0"
       x="50.855701"
       y="102.82234">20</tspan></text>
<text
     xml:space="preserve"
     style="font-size:10px;font-style:normal;font-weight:normal;line-height:125%;letter-spacing:0px;word-spacing:0px;fill:#000000;fill-opacity:1;stroke:none;font-family:Sans"
     x="88.685814"
     y="64.368958"
     id="text3216-8-9"
     sodipodi:linespacing="125%"><tspan
       sodipodi:role="line"
       id="tspan3218-0-8"
       x="88.685814"
       y="64.368958">22</tspan></text>
<text
     xml:space="preserve"
     style="font-size:10px;font-style:normal;font-weight:normal;line-height:125%;letter-spacing:0px;word-spacing:0px;fill:#000000;fill-opacity:1;stroke:none;font-family:Sans"
     x="142.68903"
     y="50.554157"
     id="text3216-8-9-2"
     sodipodi:linespacing="125%"><tspan
       sodipodi:role="line"
       id="tspan3218-0-8-9"
       x="142.68903"
       y="50.554157">24</tspan></text>
<text
     xml:space="preserve"
     style="font-size:10px;font-style:normal;font-weight:normal;line-height:125%;letter-spacing:0px;word-spacing:0px;fill:#000000;fill-opacity:1;stroke:none;font-family:Sans"
     x="200.4015"
     y="65.236359"
     id="text3216-8-9-2-7"
     sodipodi:linespacing="125%"><tspan
       sodipodi:role="line"
       id="tspan3218-0-8-9-4"
       x="200.4015"
       y="65.236359">26</tspan></text>
<text
     xml:space="preserve"
     style="font-size:10px;font-style:normal;font-weight:normal;line-height:125%;letter-spacing:0px;word-spacing:0px;fill:#000000;fill-opacity:1;stroke:none;font-family:Sans"
     x="234.75743"
     y="100.19398"
     id="text3216-8-9-2-1"
     sodipodi:linespacing="125%"><tspan
       sodipodi:role="line"
       id="tspan3218-0-8-9-9"
       x="234.75743"
       y="100.19398">28</tspan></text>
<text
     xml:space="preserve"
     style="font-size:10px;font-style:normal;font-weight:normal;line-height:125%;letter-spacing:0px;word-spacing:0px;fill:#000000;fill-opacity:1;stroke:none;font-family:Sans"
     x="249.34218"
     y="156.12619"
     id="text3216-8-9-2-77"
     sodipodi:linespacing="125%"><tspan
       sodipodi:role="line"
       id="tspan3218-0-8-9-2"
       x="249.34218"
       y="156.12619">30</tspan></text>
</svg>